<?xml version="1.0" encoding="UTF-8"?>
<svg id="_圖層_1" data-name="圖層_1" xmlns="http://www.w3.org/2000/svg" version="1.1" viewBox="0 0 846.67 497.8">
  <!-- Generator: Adobe Illustrator 29.6.1, SVG Export Plug-In . SVG Version: 2.1.1 Build 9)  -->
  <defs>
    <style>
      .st0 {
        fill: #2f2e41;
      }

      .st1 {
        fill: #fff;
      }

      .st2 {
        fill: #ff6584;
      }

      .st3 {
        fill: blue;
      }

      .st4 {
        fill: #3f3d56;
      }

      .st5 {
        fill: #f2f2f2;
      }

      .st6 {
        fill: #ed9da0;
      }

      .st7 {
        fill: #ccc;
      }

      .st8 {
        fill: #e6e6e6;
      }
    </style>
  </defs>
  <path class="st1" d="M137.08,56.71c-14.15.02-25.62,11.49-25.64,25.64v278.72c.02,14.15,11.49,25.62,25.64,25.64h577.72c14.15-.02,25.62-11.48,25.64-25.64V82.35c-.02-14.15-11.49-25.62-25.64-25.64H137.08Z"/>
  <path class="st4" d="M714.8,387.71H137.08c-14.7-.02-26.62-11.93-26.64-26.64V82.35c.02-14.7,11.93-26.62,26.64-26.64h577.72c14.7.02,26.62,11.93,26.64,26.64v278.72c-.02,14.7-11.93,26.62-26.64,26.64ZM137.08,57.71c-13.6.02-24.62,11.04-24.64,24.64v278.72c.02,13.6,11.04,24.62,24.64,24.64h577.72c13.6-.02,24.62-11.04,24.64-24.64V82.35c-.02-13.6-11.04-24.62-24.64-24.64H137.08Z"/>
  <ellipse class="st8" cx="296.03" cy="371.79" rx="2.03" ry="7.75" transform="translate(-87.2 652.85) rotate(-87.73)"/>
  <ellipse class="st4" cx="345.34" cy="369.18" rx="2.03" ry="7.75" transform="translate(-37.24 699.61) rotate(-87.73)"/>
  <ellipse class="st2" cx="277.09" cy="356.58" rx="2.03" ry="7.75" transform="translate(-90.19 619.31) rotate(-87.73)"/>
  <ellipse class="st8" cx="257.59" cy="350.94" rx="1.82" ry="3.45" transform="translate(-120.25 567.14) rotate(-83.5)"/>
  <ellipse class="st4" cx="246.22" cy="339.28" rx="1.82" ry="3.45" transform="translate(-118.77 545.5) rotate(-83.5)"/>
  <ellipse class="st8" cx="310.52" cy="359.13" rx="1.82" ry="3.45" transform="translate(-81.46 626.98) rotate(-83.5)"/>
  <ellipse class="st2" cx="287.95" cy="364.08" rx="1.82" ry="3.45" transform="translate(-106.4 608.96) rotate(-83.5)"/>
  <ellipse class="st4" cx="324.45" cy="372.07" rx="1.82" ry="3.45" transform="translate(-81.97 652.3) rotate(-83.5)"/>
  <path class="st7" d="M0,331.11c0,.66.53,1.19,1.18,1.19h844.3c.66,0,1.19-.53,1.19-1.19s-.53-1.19-1.19-1.19H1.19c-.66,0-1.19.53-1.19,1.18H0Z"/>
  <path class="st5" d="M288.59,310.09c-1.55.07-2.86-1.13-2.93-2.68-.04-.83.29-1.63.9-2.19l.19-.76c-.03-.06-.05-.12-.08-.18-1.62-3.83-6.05-5.63-9.88-4-1.82.77-3.27,2.23-4.02,4.05-2.27,5.48-5.17,10.97-5.88,16.76-.31,2.56-.18,5.16.39,7.67-5.34-11.65-8.12-24.32-8.13-37.14,0-3.22.18-6.43.54-9.63.3-2.62.71-5.22,1.23-7.81,2.86-14.02,9.01-27.16,17.94-38.34,4.32-2.36,7.81-5.98,10.01-10.39.8-1.58,1.36-3.27,1.67-5.02-.49.06-1.84-7.36-1.47-7.81-.68-1.03-1.89-1.54-2.64-2.55-3.69-5-8.77-4.13-11.43,2.67-5.67,2.86-5.72,7.61-2.25,12.17,2.21,2.9,2.52,6.83,4.46,9.94-.2.26-.41.5-.61.76-3.65,4.7-6.83,9.74-9.5,15.05.65-5.96-.13-11.98-2.26-17.58-2.16-5.22-6.22-9.61-9.79-14.12-4.29-5.42-13.08-3.05-13.84,3.81,0,.07-.01.13-.02.2.53.3,1.05.62,1.56.95,1.75,1.17,2.22,3.53,1.05,5.28-.59.89-1.53,1.49-2.59,1.65h-.08c.19,1.92.52,3.82,1,5.68-4.58,17.71,5.31,24.16,19.42,24.45.31.16.62.32.93.47-2.68,7.6-4.36,15.51-5,23.54-.36,4.74-.34,9.5.06,14.23l-.02-.17c-1.02-5.26-3.83-10.01-7.95-13.45-6.12-5.03-14.76-6.88-21.36-10.92-2.03-1.3-4.74-.71-6.04,1.32-.56.87-.79,1.91-.65,2.94,0,.06.02.12.03.18.98.4,1.94.86,2.87,1.38.53.3,1.05.62,1.56.95,1.75,1.17,2.22,3.53,1.05,5.28-.59.89-1.53,1.49-2.59,1.65h-.08c-.06.02-.1.03-.16.04,1.68,4.01,4.04,7.71,6.98,10.92,2.86,15.46,15.16,16.93,28.32,12.42h0c1.44,6.27,3.53,12.38,6.24,18.22h22.29c.08-.25.15-.5.22-.75-2.06.13-4.14,0-6.17-.37,1.65-2.03,3.31-4.08,4.96-6.1.04-.04.07-.08.1-.12.84-1.04,1.69-2.07,2.52-3.11h0c.04-3.19-.32-6.36-1.09-9.45h0Z"/>
  <path class="st5" d="M177.3,297.72c-2.51.12-4.64-1.83-4.76-4.34-.06-1.34.47-2.64,1.46-3.55.11-.46.2-.78.31-1.24-.04-.1-.08-.2-.12-.3-2.63-6.22-9.81-9.12-16.02-6.49-2.95,1.25-5.3,3.61-6.53,6.57-3.69,8.88-8.38,17.78-9.54,27.17-.51,4.15-.29,8.36.63,12.44-8.66-18.9-13.16-39.43-13.19-60.22,0-5.22.29-10.43.87-15.61.48-4.25,1.14-8.47,2-12.66,4.64-22.73,14.61-44.03,29.09-62.16,7.01-3.82,12.67-9.7,16.23-16.84,1.29-2.57,2.2-5.31,2.71-8.14-.79.1-2.98-11.93-2.38-12.67-1.1-1.67-3.07-2.5-4.28-4.13-5.98-8.11-14.22-6.69-18.53,4.33-9.19,4.64-9.28,12.33-3.64,19.73,3.59,4.71,4.08,11.08,7.23,16.12-.32.41-.66.82-.98,1.23-5.92,7.61-11.08,15.79-15.41,24.41,1.05-9.66-.2-19.43-3.66-28.5-3.51-8.46-10.08-15.58-15.87-22.9-6.95-8.78-21.21-4.95-22.43,6.18-.01.11-.02.22-.03.32.86.48,1.7,1,2.52,1.54,2.84,1.89,3.6,5.73,1.7,8.56-.96,1.44-2.48,2.41-4.19,2.67l-.13.02c.31,3.1.85,6.17,1.62,9.19-7.43,28.72,8.61,39.17,31.5,39.64.51.26,1,.52,1.5.76-4.35,12.32-7.07,25.15-8.11,38.17-.59,7.68-.55,15.4.1,23.07l-.04-.27c-1.66-8.54-6.21-16.24-12.89-21.8-9.92-8.15-23.94-11.15-34.64-17.7-5.15-3.15-11.75.92-10.85,6.89.01.1.03.19.04.29,1.6.65,3.15,1.4,4.65,2.24.86.49,1.7,1,2.52,1.54,2.84,1.89,3.6,5.73,1.7,8.56-.96,1.44-2.48,2.41-4.19,2.67l-.13.02c-.09.01-.17.03-.26.04,2.73,6.51,6.55,12.5,11.31,17.71,4.64,25.07,24.58,27.45,45.91,20.15h.01c2.34,10.17,5.73,20.07,10.12,29.54h36.15c.13-.4.25-.82.36-1.22-3.35.21-6.7.01-10-.6,2.68-3.29,5.36-6.61,8.05-9.9.06-.06.12-.13.17-.19,1.36-1.68,2.73-3.36,4.09-5.04h0c.07-5.16-.52-10.32-1.76-15.33h0Z"/>
  <path class="st0" d="M671.99,18.04c-2.43-18.6-45.33-17.41-49.38.09-2.15-1.34-7.62-.41-9.65,1.13s-3.35,3.82-4.62,6.02c-1.75,3.06-3.56,6.23-3.94,9.74-.4,3.5.97,7.47,4.15,9.03,2.52,1.24,8.07.4,10.84-.15,1.93-.38,3.56-.72,4.93-1.05.46-2.18.14-4.45-.9-6.42,2.25.45,4.19,1.88,5.28,3.9.22.42,8.08,59.59,8.08,59.59,2.15.26,4.32.31,6.48.16,1.34-7.28,1.58-14.72.72-22.08,2.28,4.2,4.08,8.65,5.37,13.25.74,2.57,1.35,5.18,1.82,7.82,18.71-3.5,43.99-15.55,48.61-36-.03-.07-.05-.13-.08-.2-.6-1.49.12-3.18,1.61-3.78,1.1-.44,2.35-.18,3.18.67.56.58,1.07,1.08,1.49,1.46-1.64-13.06-11.55-24.82-33.96-43.19Z"/>
  <polygon class="st6" points="398.86 473.57 388.37 468.08 405 424.12 420.48 432.21 398.86 473.57"/>
  <path class="st0" d="M356.54,473.04c-1.35,2.59-.35,5.78,2.24,7.14l20.85,10.9,7.47-5.55-2.48,8.16,7.87,4.12,11.65-27.66-2.66-1.59-10.82-6.52-3.49-2.1-3.92,7.51-22.67,2.79c-1.72.21-3.23,1.26-4.04,2.8Z"/>
  <polygon class="st6" points="388.11 311.72 380.48 302.67 412.53 268.29 423.79 281.64 388.11 311.72"/>
  <path class="st0" d="M349.15,295.2c-2.23,1.88-2.52,5.22-.64,7.46l15.17,17.99,9.02-2.31-5.39,6.61,5.72,6.79,21.26-21.19-1.85-2.48-7.54-10.13-2.44-3.26-6.48,5.46-22.04-6c-1.68-.46-3.47-.06-4.8,1.06Z"/>
  <path class="st0" d="M724.53,277.82s32.39,69.32-101.73,50.64c0,0-71.45-79.19-69.39-88.72,0,0-30.41-30.9-28.92-31.47s2.41-1.78-.05-1.67-2.46-3.55-2.46-3.55c0,0-54.96,59.6-101.24,89.18l-16-18s6.24-19.52,9.24-19.52,4.03.72,4.52-3.14-1.91-7.18,1.29-7.52,69.4-77.72,69.4-77.72c0,0,7.14-25.49,28.97-20.55s135.23,97.13,135.23,97.13l71.15,34.9Z"/>
  <path class="st0" d="M669.92,330.7l-177.18-1.47-77,122-21.76-11.52,4.82-2.04s-1.46-16.96.33-21.25,7.11-3,7.11-3l44.89-103.53c6.37-18.91,24.81-31.05,44.69-29.42,37.15-5.42,97.45-1.09,160.09,4.23l14,46Z"/>
  <path class="st6" d="M567.34,123.07c7.01,1.07,11.9,7.54,11.01,14.58-.1.69-.25,1.36-.46,2.03l36.41,27.62-7.51,23.4-45.78-43.22c-5.5-2.22-8.82-7.87-8.07-13.75.93-6.84,7.23-11.63,14.07-10.7h0c.11.02.23.03.34.05Z"/>
  <path class="st3" d="M727.95,124.8l-13.09,36.24-51.19,72.34s-.42-.18-1.18-.5c-4.4-1.9-20.38-8.88-35.41-16.81-14.11-7.45-27.4-15.74-29.46-21.44-.22-.6-.42-1.18-.6-1.74h0c-.96-2.91-1.56-5.92-1.79-8.97-.17-2.35-.02-3.61-.34-3.76-.25-.11-.77.43-1.92,1.65-.08.08-.15.16-.23.23-4.16,4.17-9.27,3.63-8.02,1.65,1.28-2.03.61-1.99-1.27-4.11-1.4-1.58-5.95-7.76-8.19-10.81-.77-1.05-1.26-1.73-1.26-1.73l.77-1.21,2.13-3.34,10.13-15.88.56-.87s20.82,4.81,23.59,9.38c2.78,4.57-4.19,4.42,2.78,4.57,6.97.15,14.08-9.33,8.99.1-5.09,9.42-3.75,12.71,2.55,11.22,2.56-.61,6.61,1.32,10.51,3.82h0c2.44,1.59,4.79,3.31,7.05,5.14,2.41,1.94,4.04,3.41,4.04,3.41l39.54-80.22,4.38-8.88c2.7-5.46,7.48-9.6,13.26-11.5l1.37,2.39c8.53,12.56,15.99,25.82,22.3,39.63Z"/>
  <path class="st3" d="M730.14,239.82c12.12,2.82-.77,91.04-15.22,91.32-105,2-73.03-56.91-78.66-62.55-5.63-5.65-10.71-1.6-5.63-10.39,3.7-6.4,9.19-5.45,9.27-9.04.04-1.34-.67-3.3-2.51-6.52-6.76-11.84-6.76-15.37-6.76-15.37-1.69-3.56-2.88-7.32-3.55-11.2-1.1-5.76-1.23-11.67-.4-17.48,1.27-8.52,4.46-16.64,9.33-23.75h0c.51-.77,1.04-1.54,1.6-2.3,1.27-1.73,8.31-1.4,8.31-1.4l15-63-8.68-25.12,41.11-19.26,10.93,19.02,1.37,2.39c8.53,12.56,15.99,25.82,22.3,39.63,6.07,13.51,11.06,28.51,11.24,41.56.48,34.03-5.39,44.15-5.39,44.15,0,0,14.25,10.65,7.12,17.16-7.12,6.52-22.9,9.33-10.78,12.15Z"/>
  <path class="st4" d="M543.9,114.78l-6.71,5.1c-2.76,2.11-3.29,6.05-1.19,8.82l16.15,21.23,9.54,12.53c2.11,2.75,6.04,3.29,8.8,1.19l6.72-5.1c2.75-2.11,3.27-6.05,1.18-8.81l-.99-1.31-19.57-25.71-5.13-6.74c-2.1-2.76-6.04-3.29-8.8-1.19,0,0,0,0,0,0Z"/>
  <path class="st3" d="M547.41,114.4l-7.23,5.04c-2.49,1.63-3.19,4.97-1.56,7.46.12.18.24.35.38.51l9.46,11.4,5.04,6.07,3.36,4.05,7.52,9.06c2.2,2.52,5.94,2.98,8.69,1.08l5.41-3.78,1.8-1.26c1.84-1.22,2.76-3.43,2.34-5.6-.18-.88-.58-1.7-1.16-2.39l-22.22-26.78-3.15-3.79c-2.2-2.52-5.94-2.99-8.69-1.08Z"/>
  <path class="st6" d="M552.02,142.55c7.01,1.07,11.9,7.54,11.01,14.58-.1.69-.25,1.36-.46,2.03l36.41,27.62-7.51,23.4-45.78-43.22c-5.5-2.22-8.82-7.87-8.07-13.75.93-6.84,7.23-11.63,14.07-10.7h0c.11.02.23.03.34.05Z"/>
  <path class="st3" d="M700.51,101.59h0c12.24,2.49,20.14,14.43,17.65,26.68-.22,1.08-.52,2.14-.89,3.17l-17.72,49.07-51.2,72.35s-61.4-25.94-66.05-38.75-.45-17.24-4.65-12.82-9.52,3.9-8.25,1.87.6-1.98-1.27-4.1-9.45-12.54-9.45-12.54l13.59-21.3s20.82,4.81,23.59,9.38-4.2,4.42,2.77,4.57,14.08-9.33,8.99.09-3.75,12.71,2.55,11.22,21.59,12.37,21.59,12.37l43.93-89.1c4.54-9.22,14.73-14.21,24.8-12.16Z"/>
  <circle class="st6" cx="651.26" cy="49" r="32.59"/>
  <path class="st0" d="M689.38,13.5c-2.43-18.6-45.33-17.41-49.38.09-2.15-1.34-7.62-.41-9.65,1.13s-3.35,3.82-4.62,6.02c-1.75,3.06-13.97,13.42-15.8,10.4-4.12-6.8-12.2,8.06-6,18,1.49,2.38,30.23-1.44,33-2,1.93-.38-1.38.33,0,0,.44-2.16,4.94-13.3,3.87-15.24,2.25.45,4.19,1.88,5.28,3.9.22.42,8.08,59.59,8.08,59.59,2.15.26,4.32.31,6.48.16,1.34-7.28,1.58-14.72.72-22.08,2.28,4.2,4.08,8.65,5.37,13.25.74,2.57,1.35,5.18,1.82,7.82,18.71-3.5,43.99-15.55,48.61-36-25.22-8.4-5.35-26.67-27.77-45.04Z"/>
  <ellipse class="st8" cx="396.61" cy="105.88" rx="5.26" ry="7.56" transform="translate(234.74 483.11) rotate(-81.72)"/>
  <ellipse class="st4" cx="445.79" cy="101.08" rx="5.26" ry="7.56" transform="translate(281.58 527.67) rotate(-81.72)"/>
  <ellipse class="st2" cx="383.15" cy="66.07" rx="5.26" ry="7.56" transform="translate(262.6 435.71) rotate(-81.72)"/>
  <ellipse class="st8" cx="365.94" cy="50.82" rx="4.78" ry="3.32" transform="translate(312.35 416.37) rotate(-89.57)"/>
  <ellipse class="st4" cx="358.69" cy="20.45" rx="4.78" ry="3.32" transform="translate(335.53 378.98) rotate(-89.57)"/>
  <ellipse class="st8" cx="415.04" cy="73.91" rx="4.78" ry="3.32" transform="translate(338 488.37) rotate(-89.57)"/>
  <ellipse class="st2" cx="391.28" cy="85.77" rx="4.78" ry="3.32" transform="translate(302.55 476.39) rotate(-89.57)"/>
  <ellipse class="st4" cx="424.35" cy="107.7" rx="4.78" ry="3.32" transform="translate(313.45 531.22) rotate(-89.57)"/>
  <ellipse class="st4" cx="539.74" cy="133.73" rx="1" ry="2.5" transform="translate(22.88 338.82) rotate(-35.56)"/>
  <ellipse class="st4" cx="536.74" cy="129.73" rx="1" ry="2.5" transform="translate(24.65 336.33) rotate(-35.56)"/>
</svg>